<?xml version="1.0" encoding="UTF-8" standalone="no"?>
<!DOCTYPE svg PUBLIC "-//W3C//DTD SVG 1.1//EN" "http://www.w3.org/Graphics/SVG/1.1/DTD/svg11.dtd">
<svg width="100" height="80" viewBox="0 0 100 80" xmlns="http://www.w3.org/2000/svg" xmlns:xlink="http://www.w3.org/1999/xlink">
<g opacity="0.8">
<line x1="20" y1="20" x2="40" y2="20" stroke="gray" stroke-width="2" />
<line x1="20" y1="20" x2="20" y2="40" stroke="gray" stroke-width="2" />
<line x1="40" y1="20" x2="20" y2="20" stroke="gray" stroke-width="2" />
<line x1="40" y1="20" x2="60" y2="20" stroke="gray" stroke-width="2" />
<line x1="60" y1="20" x2="40" y2="20" stroke="gray" stroke-width="2" />
<line x1="60" y1="20" x2="60" y2="40" stroke="gray" stroke-width="2" />
<line x1="80" y1="20" x2="80" y2="40" stroke="gray" stroke-width="2" />
<line x1="20" y1="40" x2="20" y2="20" stroke="gray" stroke-width="2" />
<line x1="20" y1="40" x2="20" y2="60" stroke="gray" stroke-width="2" />
<line x1="40" y1="40" x2="60" y2="40" stroke="gray" stroke-width="2" />
<line x1="40" y1="40" x2="40" y2="60" stroke="gray" stroke-width="2" />
<line x1="60" y1="40" x2="60" y2="20" stroke="gray" stroke-width="2" />
<line x1="60" y1="40" x2="40" y2="40" stroke="gray" stroke-width="2" />
<line x1="60" y1="40" x2="80" y2="40" stroke="gray" stroke-width="2" />
<line x1="80" y1="40" x2="80" y2="20" stroke="gray" stroke-width="2" />
<line x1="80" y1="40" x2="60" y2="40" stroke="gray" stroke-width="2" />
<line x1="20" y1="60" x2="20" y2="40" stroke="gray" stroke-width="2" />
<line x1="40" y1="60" x2="40" y2="40" stroke="gray" stroke-width="2" />
<line x1="40" y1="60" x2="60" y2="60" stroke="gray" stroke-width="2" />
<line x1="60" y1="60" x2="40" y2="60" stroke="gray" stroke-width="2" />
<line x1="60" y1="60" x2="80" y2="60" stroke="gray" stroke-width="2" />
<line x1="80" y1="60" x2="60" y2="60" stroke="gray" stroke-width="2" />
<rect x="15" y="15" width="10" height="10" fill="gray" stroke-width="1" stroke="black" />
<rect x="75" y="35" width="10" height="10" fill="gray" stroke-width="1" stroke="black" />
</g>
</svg>
