<svg xmlns="http://www.w3.org/2000/svg" version="1.1" width="220" height="260">
<circle cx="130.0" cy="30.0" r="14.0" stroke-width="3" stroke="black" fill="white"/>
<text x="130.0" y="30.0" font-size="14" style="text-anchor: middle;dominant-baseline: central;">64</text>
<line x1="121.25427" y1="40.932163" x2="98.74573" y2="69.06784" style="stroke:black;stroke-width:3"/>
<circle cx="90.0" cy="80.0" r="14.0" stroke-width="3" stroke="black" fill="white"/>
<text x="90.0" y="80.0" font-size="14" style="text-anchor: middle;dominant-baseline: central;">40</text>
<line x1="84.80053" y1="92.99867" x2="75.19947" y2="117.00133" style="stroke:black;stroke-width:3"/>
<circle cx="70.0" cy="130.0" r="14.0" stroke-width="3" stroke="black" fill="white"/>
<text x="70.0" y="130.0" font-size="14" style="text-anchor: middle;dominant-baseline: central;">39</text>
<line x1="64.80053" y1="142.99867" x2="55.19947" y2="167.00133" style="stroke:black;stroke-width:3"/>
<circle cx="50.0" cy="180.0" r="14.0" stroke-width="3" stroke="black" fill="white"/>
<text x="50.0" y="180.0" font-size="14" style="text-anchor: middle;dominant-baseline: central;">11</text>
<line x1="44.80053" y1="192.99867" x2="35.19947" y2="217.00133" style="stroke:red;stroke-width:3"/>
<circle cx="30.0" cy="230.0" r="14.0" stroke-width="3" stroke="red" fill="white"/>
<text x="30.0" y="230.0" font-size="14" style="text-anchor: middle;dominant-baseline: central;">1</text>
<line x1="75.19947" y1="142.99867" x2="84.80053" y2="167.00133" style="stroke:black;stroke-width:3"/>
<circle cx="90.0" cy="180.0" r="14.0" stroke-width="3" stroke="black" fill="white"/>
<text x="90.0" y="180.0" font-size="14" style="text-anchor: middle;dominant-baseline: central;">39</text>
<line x1="95.19947" y1="92.99867" x2="104.80053" y2="117.00133" style="stroke:black;stroke-width:3"/>
<circle cx="110.0" cy="130.0" r="14.0" stroke-width="3" stroke="black" fill="white"/>
<text x="110.0" y="130.0" font-size="14" style="text-anchor: middle;dominant-baseline: central;">48</text>
<line x1="115.19947" y1="142.99867" x2="124.80053" y2="167.00133" style="stroke:red;stroke-width:3"/>
<circle cx="130.0" cy="180.0" r="14.0" stroke-width="3" stroke="red" fill="white"/>
<text x="130.0" y="180.0" font-size="14" style="text-anchor: middle;dominant-baseline: central;">48</text>
<line x1="138.74573" y1="40.932163" x2="161.25427" y2="69.06784" style="stroke:red;stroke-width:3"/>
<circle cx="170.0" cy="80.0" r="14.0" stroke-width="3" stroke="red" fill="white"/>
<text x="170.0" y="80.0" font-size="14" style="text-anchor: middle;dominant-baseline: central;">66</text>
<line x1="164.80054" y1="92.99867" x2="155.19946" y2="117.00133" style="stroke:black;stroke-width:3"/>
<circle cx="150.0" cy="130.0" r="14.0" stroke-width="3" stroke="black" fill="white"/>
<text x="150.0" y="130.0" font-size="14" style="text-anchor: middle;dominant-baseline: central;">64</text>
<line x1="175.19946" y1="92.99867" x2="184.80054" y2="117.00133" style="stroke:black;stroke-width:3"/>
<circle cx="190.0" cy="130.0" r="14.0" stroke-width="3" stroke="black" fill="white"/>
<text x="190.0" y="130.0" font-size="14" style="text-anchor: middle;dominant-baseline: central;">98</text>
<line x1="184.80054" y1="142.99867" x2="175.19946" y2="167.00133" style="stroke:red;stroke-width:3"/>
<circle cx="170.0" cy="180.0" r="14.0" stroke-width="3" stroke="red" fill="white"/>
<text x="170.0" y="180.0" font-size="14" style="text-anchor: middle;dominant-baseline: central;">78</text>
</svg>

